# xmcd
#
# Track frame offsets: 
#        150
#        20035
#        45096
#        71140
#        88503
#        113352
#        128313
#        155793
#        175246
#        197393
#        225304
#
# Disc length: 3424 seconds
#
# Revision: 0
# Processed by: cddbd v1.5.2PL0 Copyright (c) Steve Scherf et al.
# Submitted via: ExactAudioCopy v1.3
#
DISCID=790d5e0b
DTITLE=三四六 - うたから
DYEAR=2011
DGENRE=JPop
TTITLE0=タカラモノを探すあなたへ
TTITLE1=君と一緒に
TTITLE2=ゴール
TTITLE3=虹を追いかけて
TTITLE4=ONLY
TTITLE5=せのび
TTITLE6=シロツメクサ
TTITLE7=キズナ
TTITLE8=マイフレンズ
TTITLE9=そんな人になりたくて
TTITLE10=プラス
EXTD=
EXTT0=
EXTT1=
EXTT2=
EXTT3=
EXTT4=
EXTT5=
EXTT6=
EXTT7=
EXTT8=
EXTT9=
EXTT10=
PLAYORDER=
